<svg width="24" height="24" viewBox="0 0 24 24" fill="none" xmlns="http://www.w3.org/2000/svg">
<path opacity="0.992" fill-rule="evenodd" clip-rule="evenodd" d="M10.8516 1.14845C13.9222 0.997723 16.6567 1.86491 19.0547 3.75002C21.1844 5.67306 22.4187 8.07152 22.7578 10.9453C19.7589 10.8242 16.7589 10.7538 13.7578 10.7344C13.4138 10.836 13.0857 10.9766 12.7734 11.1563C10.8844 12.3745 9.08752 13.7182 7.38281 15.1875C5.33611 15.1804 3.28923 15.1726 1.24219 15.1641C1.26529 12.9453 1.28873 10.7266 1.3125 8.50783C1.89897 5.84378 3.39116 3.86719 5.78906 2.57814C7.38295 1.75015 9.07045 1.27358 10.8516 1.14845Z" fill="#CBAB82"/>
<path opacity="0.982" fill-rule="evenodd" clip-rule="evenodd" d="M23.9766 12.8203C23.9766 12.8516 23.9766 12.8828 23.9766 12.9141C23.8899 13.5164 23.593 13.9929 23.086 14.3437C22.982 14.4035 22.8726 14.4504 22.7578 14.4844C19.7252 14.6572 16.6939 14.8447 13.6641 15.0469C13.4766 15.2344 13.2891 15.4219 13.1016 15.6094C13.2422 15.6953 13.3828 15.7813 13.5235 15.8672C13.6608 15.7216 13.8171 15.6044 13.9922 15.5156C14.804 15.4591 15.6165 15.4201 16.4297 15.3984C16.4079 17.7265 16.3845 20.0547 16.3594 22.3828C16.3097 22.5263 16.2237 22.6435 16.1016 22.7344C15.7222 22.7869 15.3394 22.8103 14.9531 22.8047C14.6172 22.7969 14.2813 22.7891 13.9453 22.7812C13.7393 22.747 13.6064 22.6298 13.5469 22.4297C13.5391 21.4293 13.5156 20.4293 13.4766 19.4297C12.543 18.8574 11.6133 18.2793 10.6875 17.6953C9.91928 18.3177 9.0521 18.7474 8.08596 18.9844C5.88283 19.0156 3.67971 19.0156 1.47658 18.9844C0.366226 18.7965 -0.110337 18.1481 0.0468931 17.0391C0.179637 16.4512 0.499949 16.0059 1.00783 15.7031C3.19536 15.699 5.38286 15.699 7.57033 15.7031C9.28741 14.2357 11.0843 12.8763 12.961 11.625C13.2209 11.4872 13.4866 11.3622 13.7578 11.25C16.7593 11.2772 19.7593 11.3553 22.7578 11.4844C23.1302 11.6381 23.4505 11.8646 23.7188 12.1641C23.8567 12.3677 23.9426 12.5865 23.9766 12.8203ZM12.1641 16.4766C12.6547 16.714 13.1234 16.9874 13.5703 17.2969C13.5345 17.5529 13.5111 17.8107 13.5 18.0703C12.8985 17.6875 12.2969 17.3047 11.6953 16.9219C11.8467 16.7625 12.0029 16.6141 12.1641 16.4766Z" fill="#CBAB82"/>
</svg>
