<svg width="24" height="25" viewBox="0 0 24 25" fill="none" xmlns="http://www.w3.org/2000/svg">
<g clip-path="url(#clip0_19_1166)">
<path d="M7 15C7 15.2652 6.89464 15.5196 6.70711 15.7071C6.51957 15.8946 6.26522 16 6 16H5C4.73478 16 4.48043 15.8946 4.29289 15.7071C4.10536 15.5196 4 15.2652 4 15C4 14.7348 4.10536 14.4804 4.29289 14.2929C4.48043 14.1054 4.73478 14 5 14H6C6.26522 14 6.51957 14.1054 6.70711 14.2929C6.89464 14.4804 7 14.7348 7 15ZM11 14H10C9.73478 14 9.48043 14.1054 9.29289 14.2929C9.10536 14.4804 9 14.7348 9 15C9 15.2652 9.10536 15.5196 9.29289 15.7071C9.48043 15.8946 9.73478 16 10 16H11C11.2652 16 11.5196 15.8946 11.7071 15.7071C11.8946 15.5196 12 15.2652 12 15C12 14.7348 11.8946 14.4804 11.7071 14.2929C11.5196 14.1054 11.2652 14 11 14ZM6 18H5C4.73478 18 4.48043 18.1054 4.29289 18.2929C4.10536 18.4804 4 18.7348 4 19C4 19.2652 4.10536 19.5196 4.29289 19.7071C4.48043 19.8946 4.73478 20 5 20H6C6.26522 20 6.51957 19.8946 6.70711 19.7071C6.89464 19.5196 7 19.2652 7 19C7 18.7348 6.89464 18.4804 6.70711 18.2929C6.51957 18.1054 6.26522 18 6 18ZM11 18H10C9.73478 18 9.48043 18.1054 9.29289 18.2929C9.10536 18.4804 9 18.7348 9 19C9 19.2652 9.10536 19.5196 9.29289 19.7071C9.48043 19.8946 9.73478 20 10 20H11C11.2652 20 11.5196 19.8946 11.7071 19.7071C11.8946 19.5196 12 19.2652 12 19C12 18.7348 11.8946 18.4804 11.7071 18.2929C11.5196 18.1054 11.2652 18 11 18ZM6 6H5C4.73478 6 4.48043 6.10536 4.29289 6.29289C4.10536 6.48043 4 6.73478 4 7C4 7.26522 4.10536 7.51957 4.29289 7.70711C4.48043 7.89464 4.73478 8 5 8H6C6.26522 8 6.51957 7.89464 6.70711 7.70711C6.89464 7.51957 7 7.26522 7 7C7 6.73478 6.89464 6.48043 6.70711 6.29289C6.51957 6.10536 6.26522 6 6 6ZM11 6H10C9.73478 6 9.48043 6.10536 9.29289 6.29289C9.10536 6.48043 9 6.73478 9 7C9 7.26522 9.10536 7.51957 9.29289 7.70711C9.48043 7.89464 9.73478 8 10 8H11C11.2652 8 11.5196 7.89464 11.7071 7.70711C11.8946 7.51957 12 7.26522 12 7C12 6.73478 11.8946 6.48043 11.7071 6.29289C11.5196 6.10536 11.2652 6 11 6ZM6 10H5C4.73478 10 4.48043 10.1054 4.29289 10.2929C4.10536 10.4804 4 10.7348 4 11C4 11.2652 4.10536 11.5196 4.29289 11.7071C4.48043 11.8946 4.73478 12 5 12H6C6.26522 12 6.51957 11.8946 6.70711 11.7071C6.89464 11.5196 7 11.2652 7 11C7 10.7348 6.89464 10.4804 6.70711 10.2929C6.51957 10.1054 6.26522 10 6 10ZM11 10H10C9.73478 10 9.48043 10.1054 9.29289 10.2929C9.10536 10.4804 9 10.7348 9 11C9 11.2652 9.10536 11.5196 9.29289 11.7071C9.48043 11.8946 9.73478 12 10 12H11C11.2652 12 11.5196 11.8946 11.7071 11.7071C11.8946 11.5196 12 11.2652 12 11C12 10.7348 11.8946 10.4804 11.7071 10.2929C11.5196 10.1054 11.2652 10 11 10ZM24 11V20C23.9984 21.3256 23.4711 22.5964 22.5338 23.5338C21.5964 24.4711 20.3256 24.9984 19 25H5C3.67441 24.9984 2.40356 24.4711 1.46622 23.5338C0.528882 22.5964 0.00158786 21.3256 0 20L0 6C0.00158786 4.67441 0.528882 3.40356 1.46622 2.46622C2.40356 1.52888 3.67441 1.00159 5 1L11 1C12.3256 1.00159 13.5964 1.52888 14.5338 2.46622C15.4711 3.40356 15.9984 4.67441 16 6H19C20.3256 6.00159 21.5964 6.52888 22.5338 7.46622C23.4711 8.40356 23.9984 9.67441 24 11ZM5 23H14V6C14 5.20435 13.6839 4.44129 13.1213 3.87868C12.5587 3.31607 11.7956 3 11 3H5C4.20435 3 3.44129 3.31607 2.87868 3.87868C2.31607 4.44129 2 5.20435 2 6V20C2 20.7956 2.31607 21.5587 2.87868 22.1213C3.44129 22.6839 4.20435 23 5 23ZM22 11C22 10.2044 21.6839 9.44129 21.1213 8.87868C20.5587 8.31607 19.7956 8 19 8H16V23H19C19.7956 23 20.5587 22.6839 21.1213 22.1213C21.6839 21.5587 22 20.7956 22 20V11ZM19 14C18.8022 14 18.6089 14.0586 18.4444 14.1685C18.28 14.2784 18.1518 14.4346 18.0761 14.6173C18.0004 14.8 17.9806 15.0011 18.0192 15.1951C18.0578 15.3891 18.153 15.5673 18.2929 15.7071C18.4327 15.847 18.6109 15.9422 18.8049 15.9808C18.9989 16.0194 19.2 15.9996 19.3827 15.9239C19.5654 15.8482 19.7216 15.72 19.8315 15.5556C19.9414 15.3911 20 15.1978 20 15C20 14.7348 19.8946 14.4804 19.7071 14.2929C19.5196 14.1054 19.2652 14 19 14ZM19 18C18.8022 18 18.6089 18.0586 18.4444 18.1685C18.28 18.2784 18.1518 18.4346 18.0761 18.6173C18.0004 18.8 17.9806 19.0011 18.0192 19.1951C18.0578 19.3891 18.153 19.5673 18.2929 19.7071C18.4327 19.847 18.6109 19.9422 18.8049 19.9808C18.9989 20.0194 19.2 19.9996 19.3827 19.9239C19.5654 19.8482 19.7216 19.72 19.8315 19.5556C19.9414 19.3911 20 19.1978 20 19C20 18.7348 19.8946 18.4804 19.7071 18.2929C19.5196 18.1054 19.2652 18 19 18ZM19 10C18.8022 10 18.6089 10.0586 18.4444 10.1685C18.28 10.2784 18.1518 10.4346 18.0761 10.6173C18.0004 10.8 17.9806 11.0011 18.0192 11.1951C18.0578 11.3891 18.153 11.5673 18.2929 11.7071C18.4327 11.847 18.6109 11.9422 18.8049 11.9808C18.9989 12.0194 19.2 11.9996 19.3827 11.9239C19.5654 11.8482 19.7216 11.72 19.8315 11.5556C19.9414 11.3911 20 11.1978 20 11C20 10.7348 19.8946 10.4804 19.7071 10.2929C19.5196 10.1054 19.2652 10 19 10Z" fill="#CBAB82"/>
</g>
<defs>
<clipPath id="clip0_19_1166">
<rect width="24" height="24" fill="white" transform="translate(0 1)"/>
</clipPath>
</defs>
</svg>
