<svg width="24" height="24" viewBox="0 0 24 24" fill="none" xmlns="http://www.w3.org/2000/svg">
<g clip-path="url(#clip0_19_1477)">
<path d="M11.9 2C11.6 2 11.4 2.1 11.2 2.3L7.00001 6.5C6.60001 6.9 6.60001 7.5 7.00001 7.9C7.40001 8.3 8.00001 8.3 8.40001 7.9L12.6 3.7C13 3.3 13 2.7 12.6 2.3C12.5 2.1 12.2 2 11.9 2ZM13.3 4.4L9.10001 8.7C9.10001 8.7 9.10001 9.5 9.90001 10.7L2.60001 18C1.90001 18.7 1.80001 19.7 2.40001 20.3C3.00001 20.9 4.00001 20.8 4.70001 20.1L12 12.8C13.2 13.7 14.1 13.6 14.1 13.6L18.3 9.4C18.3 9.4 18.4 8.1 16.5 6.2C14.6 4.3 13.3 4.4 13.3 4.4ZM19.7 9.8C19.4 9.8 19.2 9.9 19 10.1L14.8 14.3C14.4 14.7 14.4 15.3 14.8 15.7C15.2 16.1 15.8 16.1 16.2 15.7L20.4 11.5C20.8 11.1 20.8 10.5 20.4 10.1C20.2 9.9 20 9.8 19.7 9.8ZM13 20C11.9 20 11 20.9 11 22H22C22 20.9 21.1 20 20 20H13Z" fill="#CBAB82"/>
</g>
<defs>
<clipPath id="clip0_19_1477">
<rect width="24" height="24" fill="white"/>
</clipPath>
</defs>
</svg>
