<svg width="9" height="18" viewBox="0 0 9 18" fill="none" xmlns="http://www.w3.org/2000/svg">
    <path d="M8.63257 0.376776C8.86784 0.618097 9 0.945358 9 1.28659C9 1.62782 8.86784 1.95508 8.63257 2.1964L2.87741 8.09796C2.64839 8.34263 2.52051 8.66863 2.52051 9.00777C2.52051 9.34691 2.64839 9.67291 2.87741 9.91758L8.63257 15.8191C8.86117 16.0618 8.98766 16.3869 8.9848 16.7243C8.98194 17.0617 8.84996 17.3845 8.61728 17.6231C8.38461 17.8617 8.06985 17.997 7.74081 18C7.41177 18.0029 7.09477 17.8732 6.85808 17.6388L1.10292 11.7385C0.753254 11.38 0.475882 10.9544 0.286641 10.4859C0.0974016 10.0175 0 9.51545 0 9.00841C0 8.50138 0.0974016 7.99931 0.286641 7.53088C0.475882 7.06245 0.753254 6.63683 1.10292 6.27833L6.85808 0.376776C7.09342 0.135525 7.41256 0 7.74533 0C8.07809 0 8.39723 0.135525 8.63257 0.376776Z" fill="#CBAB82"/>
</svg>
