<svg width="9" height="18" viewBox="0 0 9 18" fill="none" xmlns="http://www.w3.org/2000/svg">
    <path d="M0.36743 0.376776C0.132164 0.618097 0 0.945358 0 1.28659C0 1.62782 0.132164 1.95508 0.36743 2.1964L6.12259 8.09796C6.35161 8.34263 6.47949 8.66863 6.47949 9.00777C6.47949 9.34691 6.35161 9.67291 6.12259 9.91758L0.36743 15.8191C0.138832 16.0618 0.0123408 16.3869 0.0152 16.7243C0.0180593 17.0617 0.15004 17.3845 0.382716 17.6231C0.615393 17.8617 0.930148 17.997 1.25919 18C1.58823 18.0029 1.90523 17.8732 2.14192 17.6388L7.89708 11.7385C8.24675 11.38 8.52412 10.9544 8.71336 10.4859C8.9026 10.0175 9 9.51545 9 9.00841C9 8.50138 8.9026 7.99931 8.71336 7.53088C8.52412 7.06245 8.24675 6.63683 7.89708 6.27833L2.14192 0.376776C1.90658 0.135525 1.58744 0 1.25467 0C0.921908 0 0.602766 0.135525 0.36743 0.376776Z" fill="#CBAB82"/>
</svg>
