<svg width="11" height="11" viewBox="0 0 11 11" fill="none" xmlns="http://www.w3.org/2000/svg">
<path d="M5.17537 10.406C5.05537 10.406 4.95337 10.37 4.86937 10.298C4.79737 10.214 4.76137 10.112 4.76137 9.992V6.248H1.07137C0.951367 6.248 0.849367 6.212 0.765367 6.14C0.693367 6.056 0.657367 5.954 0.657367 5.834V5.258C0.657367 5.138 0.693367 5.042 0.765367 4.97C0.849367 4.886 0.951367 4.844 1.07137 4.844H4.76137V1.208C4.76137 1.088 4.79737 0.992 4.86937 0.92C4.95337 0.836 5.05537 0.793999 5.17537 0.793999H5.80537C5.92537 0.793999 6.02137 0.836 6.09337 0.92C6.17737 0.992 6.21937 1.088 6.21937 1.208V4.844H9.92737C10.0474 4.844 10.1434 4.886 10.2154 4.97C10.2994 5.042 10.3414 5.138 10.3414 5.258V5.834C10.3414 5.954 10.2994 6.056 10.2154 6.14C10.1434 6.212 10.0474 6.248 9.92737 6.248H6.21937V9.992C6.21937 10.112 6.17737 10.214 6.09337 10.298C6.02137 10.37 5.92537 10.406 5.80537 10.406H5.17537Z" fill="#ffffff"/>
</svg>
