<svg width="52" height="52" viewBox="0 0 52 52" fill="none" xmlns="http://www.w3.org/2000/svg">
<g clip-path="url(#clip0_3_1540)">
<path d="M47.9527 42.1027H46.15C46.387 41.6569 46.5119 41.1602 46.514 40.6554V26.6934C46.8887 25.9392 47.0844 25.1088 47.086 24.2667V18.7027C47.086 18.1671 46.8732 17.6535 46.4945 17.2748C46.1158 16.8961 45.6022 16.6834 45.0667 16.6834H39V15.8167C38.9977 13.5947 38.114 11.4644 36.5428 9.89321C34.9716 8.32203 32.8413 7.43833 30.6193 7.43604H21.3807C19.1587 7.43833 17.0284 8.32203 15.4572 9.89321C13.886 11.4644 13.0023 13.5947 13 15.8167V16.6834H6.93333C6.39777 16.6834 5.88414 16.8961 5.50545 17.2748C5.12675 17.6535 4.914 18.1671 4.914 18.7027V24.2667C4.91425 25.1117 5.11002 25.9452 5.486 26.702V40.6554C5.48811 41.1602 5.61304 41.6569 5.85 42.1027H4.04733C3.81748 42.1027 3.59704 42.194 3.4345 42.3565C3.27197 42.5191 3.18066 42.7395 3.18066 42.9694C3.18066 43.1992 3.27197 43.4197 3.4345 43.5822C3.59704 43.7447 3.81748 43.836 4.04733 43.836H20.6873L20.5833 45.3094C20.5752 45.4362 20.595 45.5633 20.6414 45.6816C20.6879 45.7999 20.7597 45.9066 20.852 45.994L25.3933 50.3967C25.5553 50.5555 25.7731 50.6444 26 50.6444C26.2268 50.6444 26.4447 50.5555 26.6067 50.3967L31.148 45.994C31.2402 45.9066 31.3121 45.7999 31.3586 45.6816C31.405 45.5633 31.4248 45.4362 31.4167 45.3094L31.3127 43.836H47.9527C48.1825 43.836 48.403 43.7447 48.5655 43.5822C48.728 43.4197 48.8193 43.1992 48.8193 42.9694C48.8193 42.7395 48.728 42.5191 48.5655 42.3565C48.403 42.194 48.1825 42.1027 47.9527 42.1027ZM14.7333 15.8167C14.7356 14.0544 15.4367 12.365 16.6828 11.1189C17.9289 9.87274 19.6184 9.17166 21.3807 9.16937H30.6193C32.3816 9.17166 34.0711 9.87274 35.3172 11.1189C36.5633 12.365 37.2644 14.0544 37.2667 15.8167V16.6834H35.5333V15.8167C35.5333 14.5134 35.0156 13.2635 34.0941 12.342C33.1725 11.4204 31.9226 10.9027 30.6193 10.9027H21.3807C20.0774 10.9027 18.8275 11.4204 17.9059 12.342C16.9844 13.2635 16.4667 14.5134 16.4667 15.8167V16.6834H14.7333V15.8167ZM33.8 15.8167V16.6834H32.136C32.0372 16.4182 31.8935 16.1719 31.7113 15.9554C31.468 15.6684 31.1654 15.4376 30.8242 15.279C30.4831 15.1204 30.1116 15.0377 29.7353 15.0367H22.2647C21.8884 15.0377 21.5169 15.1204 21.1758 15.279C20.8346 15.4376 20.532 15.6684 20.2887 15.9554C20.1064 16.1719 19.9628 16.4182 19.864 16.6834H18.2V15.8167C18.2 14.9731 18.5351 14.1641 19.1316 13.5676C19.7281 12.9711 20.5371 12.636 21.3807 12.636H30.6193C31.037 12.636 31.4506 12.7183 31.8365 12.8781C32.2224 13.038 32.573 13.2723 32.8684 13.5676C33.1638 13.863 33.398 14.2136 33.5579 14.5995C33.7177 14.9854 33.8 15.399 33.8 15.8167ZM20.8 42.1027H8.66666C8.4766 42.1027 8.28839 42.0653 8.11279 41.9925C7.93719 41.9198 7.77764 41.8132 7.64324 41.6788C7.50885 41.5444 7.40224 41.3848 7.3295 41.2092C7.25677 41.0336 7.21933 40.8454 7.21933 40.6554V28.7214C8.14665 29.3862 9.25896 29.7439 10.4 29.744H11.2667V30.836C11.2441 31.2671 11.3096 31.6983 11.4591 32.1032C11.6085 32.5082 11.8388 32.8785 12.136 33.1916C12.4332 33.5047 12.7909 33.754 13.1876 33.9244C13.5842 34.0948 14.0113 34.1827 14.443 34.1827C14.8747 34.1827 15.3018 34.0948 15.6984 33.9244C16.0951 33.754 16.4528 33.5047 16.75 33.1916C17.0472 32.8785 17.2775 32.5082 17.4269 32.1032C17.5764 31.6983 17.6419 31.2671 17.6193 30.836V29.744H21.6667L20.8 42.1027ZM13 30.836V28.236H15.886V30.836C15.9014 31.0349 15.8756 31.2349 15.81 31.4233C15.7445 31.6117 15.6407 31.7846 15.5052 31.931C15.3697 32.0774 15.2054 32.1942 15.0226 32.2741C14.8398 32.354 14.6425 32.3953 14.443 32.3953C14.2435 32.3953 14.0462 32.354 13.8634 32.2741C13.6806 32.1942 13.5162 32.0774 13.3807 31.931C13.2452 31.7846 13.1415 31.6117 13.076 31.4233C13.0104 31.2349 12.9846 31.0349 13 30.836ZM21.7533 28.0107H17.6193V27.95C17.6205 27.7604 17.5841 27.5724 17.5123 27.3968C17.4405 27.2213 17.3347 27.0616 17.201 26.9271C17.0673 26.7926 16.9083 26.6859 16.7332 26.613C16.5581 26.5402 16.3703 26.5027 16.1807 26.5027H12.714C12.3301 26.5027 11.962 26.6552 11.6906 26.9266C11.4192 27.198 11.2667 27.5662 11.2667 27.95V28.0107H10.4C9.40623 28.0107 8.45303 27.6165 7.74952 26.9146C7.04601 26.2127 6.64963 25.2605 6.64733 24.2667V18.7027C6.64733 18.6268 6.67746 18.5541 6.7311 18.5005C6.78473 18.4468 6.85748 18.4167 6.93333 18.4167H19.76L20.3667 22.0134C20.4333 22.4321 20.6312 22.8189 20.9318 23.118C21.2324 23.417 21.6202 23.6129 22.0393 23.6774L21.7533 28.0107ZM22.3427 45.0667L22.5333 42.1807L29.2067 38.3327L29.4667 41.964L23.036 45.682L22.3427 45.0667ZM28.4613 27.2134L28.704 30.8447L23.0793 34.0947L23.3393 30.16L28.4613 27.2134ZM23.4867 28.08L23.7813 23.7467H28.2187L28.3313 25.324L23.4867 28.08ZM28.834 32.7687L29.0767 36.4087L22.672 40.1007L22.9407 36.1747L28.834 32.7687ZM26 48.5334L24.31 46.904L29.5793 43.862L29.6573 44.9887L26 48.5334ZM29.64 21.9354H22.36C22.2911 21.9362 22.2242 21.912 22.1717 21.8675C22.1191 21.8229 22.0844 21.7608 22.074 21.6927L21.4153 17.7407C21.3943 17.6169 21.4005 17.4899 21.4334 17.3687C21.4664 17.2475 21.5252 17.1349 21.606 17.0387C21.6874 16.9436 21.7884 16.8672 21.9021 16.8148C22.0158 16.7625 22.1395 16.7354 22.2647 16.7354H29.7353C29.8605 16.7354 29.9842 16.7625 30.0979 16.8148C30.2116 16.8672 30.3126 16.9436 30.394 17.0387C30.4747 17.1349 30.5336 17.2475 30.5665 17.3687C30.5995 17.4899 30.6056 17.6169 30.5847 17.7407L29.926 21.6927C29.9237 21.767 29.8926 21.8376 29.8392 21.8894C29.7858 21.9411 29.7144 21.9701 29.64 21.97V21.9354ZM29.9607 23.6687C30.3785 23.6047 30.7654 23.4101 31.0659 23.1127C31.3664 22.8154 31.565 22.4305 31.6333 22.0134L32.24 18.4167H45.0667C45.1425 18.4167 45.2153 18.4468 45.2689 18.5005C45.3225 18.5541 45.3527 18.6268 45.3527 18.7027V24.2667C45.3504 25.2605 44.954 26.2127 44.2505 26.9146C43.547 27.6165 42.5938 28.0107 41.6 28.0107H40.7333V27.95C40.7333 27.5662 40.5808 27.198 40.3094 26.9266C40.038 26.6552 39.6699 26.5027 39.286 26.5027H35.8193C35.6297 26.5027 35.4419 26.5402 35.2668 26.613C35.0917 26.6859 34.9327 26.7926 34.799 26.9271C34.6653 27.0616 34.5595 27.2213 34.4877 27.3968C34.4159 27.5724 34.3795 27.7604 34.3807 27.95V28.0107H30.2467L29.9607 23.6687ZM39 28.236V30.836C39.0154 31.0349 38.9896 31.2349 38.924 31.4233C38.8585 31.6117 38.7547 31.7846 38.6192 31.931C38.4837 32.0774 38.3194 32.1942 38.1366 32.2741C37.9538 32.354 37.7565 32.3953 37.557 32.3953C37.3575 32.3953 37.1602 32.354 36.9774 32.2741C36.7946 32.1942 36.6302 32.0774 36.4947 31.931C36.3592 31.7846 36.2555 31.6117 36.1899 31.4233C36.1244 31.2349 36.0986 31.0349 36.114 30.836V28.236H39ZM31.2 42.1027L30.3333 29.744H34.346V30.836C34.3235 31.2671 34.3889 31.6983 34.5384 32.1032C34.6878 32.5082 34.9182 32.8785 35.2153 33.1916C35.5125 33.5047 35.8703 33.754 36.2669 33.9244C36.6635 34.0948 37.0907 34.1827 37.5223 34.1827C37.954 34.1827 38.3811 34.0948 38.7778 33.9244C39.1744 33.754 39.5322 33.5047 39.8293 33.1916C40.1265 32.8785 40.3568 32.5082 40.5063 32.1032C40.6557 31.6983 40.7212 31.2671 40.6987 30.836V29.744H41.5653C42.7064 29.7439 43.8187 29.3862 44.746 28.7214V40.6554C44.7461 41.0333 44.5984 41.3963 44.3344 41.6667C44.0704 41.9372 43.7111 42.0936 43.3333 42.1027H31.2Z" fill="#CBAB82" stroke="#CBAB82" stroke-width="0.6"/>
</g>
<defs>
<clipPath id="clip0_3_1540">
<rect width="52" height="52" fill="white"/>
</clipPath>
</defs>
</svg>
