<svg width="19" height="36" viewBox="0 0 19 36" fill="none" xmlns="http://www.w3.org/2000/svg">
<rect width="12" height="36" fill="white"/>
<path fill-rule="evenodd" clip-rule="evenodd" d="M12.4073 19.8415L14.639 20.8843L19 28H16.3998L11.4246 19.8619V20.5367C11.4382 20.7957 11.445 21.0547 11.445 21.3137C11.445 25.0147 9.17241 28 5.24138 28C1.59698 28 0.163793 25.6485 0.0204741 25.3214L0.450431 24.5648C4.46336 29.37 8.98815 26.0779 8.98815 21.3137C8.98815 20.8093 8.94037 20.3186 8.84483 19.8415H7.14547C7.0431 19.8415 3.84914 19.9846 1.78125 18.0216C2.19073 17.1015 3.52155 16.7334 3.52155 16.7334C4.79095 18.8191 7.14547 18.7986 7.14547 18.7986H8.53772C7.28879 15.6088 3.74677 14.198 0.491379 18.1034L0 17.306C0.143319 17.0606 1.53556 14.6273 5.24138 14.6273C6.81789 14.6273 8.12823 15.1181 9.13147 15.9155V8.06371H7.14547C7.14547 8.06371 2.72306 8.06371 2.72306 13.4209C2.72306 13.6936 2.72989 13.9458 2.74353 14.1775C1.78125 14.4433 0.921336 14.9954 0.368535 15.752C0.163793 15.0772 0.0409483 14.3206 0.0409483 13.4209C0.0409483 6.59149 6.96121 7.02089 7.14547 7.00044H11.4246H14.0248C17.9558 6.95955 18.4267 9.7813 18.4267 10.3334C18.4267 12.1328 17.2597 12.9302 16.195 13.2983C17.4644 13.605 19 14.4024 19 16.5085C19 17.2242 18.57 19.7597 14.25 19.8415C14.1681 19.8415 13.4106 19.8415 13.3287 19.8415H12.4073ZM11.4246 12.7257H14.4957C14.7619 12.7257 16.1131 12.6235 16.1131 10.6605C16.1131 8.06371 14.0248 8.06371 14.0248 8.06371H11.4246V12.7257ZM11.4246 18.7986H14.0248C14.0248 18.7986 16.4407 18.7577 16.4407 16.4267C16.4407 15.5066 16.1336 14.8932 15.7241 14.4842C15.2737 14.0139 14.639 13.7686 14.0248 13.7686H11.4246V18.7986Z" fill="#BF9E57"/>
</svg>
