<svg width="52" height="52" viewBox="0 0 52 52" fill="none" xmlns="http://www.w3.org/2000/svg">
    <path d="M43.0625 5H8.9375C7.89321 5 6.89169 5.41484 6.15327 6.15327C5.41484 6.89169 5 7.89321 5 8.9375L5 37.8125C5 38.8568 5.41484 39.8583 6.15327 40.5967C6.89169 41.3352 7.89321 41.75 8.9375 41.75H11.5625C11.9106 41.75 12.2444 41.6117 12.4906 41.3656C12.7367 41.1194 12.875 40.7856 12.875 40.4375C12.875 40.0894 12.7367 39.7556 12.4906 39.5094C12.2444 39.2633 11.9106 39.125 11.5625 39.125H8.9375C8.5894 39.125 8.25556 38.9867 8.00942 38.7406C7.76328 38.4944 7.625 38.1606 7.625 37.8125V15.5H44.375V37.8125C44.375 38.1606 44.2367 38.4944 43.9906 38.7406C43.7444 38.9867 43.4106 39.125 43.0625 39.125H40.4375C40.0894 39.125 39.7556 39.2633 39.5094 39.5094C39.2633 39.7556 39.125 40.0894 39.125 40.4375C39.125 40.7856 39.2633 41.1194 39.5094 41.3656C39.7556 41.6117 40.0894 41.75 40.4375 41.75H43.0625C44.1068 41.75 45.1083 41.3352 45.8467 40.5967C46.5852 39.8583 47 38.8568 47 37.8125V8.9375C47 7.89321 46.5852 6.89169 45.8467 6.15327C45.1083 5.41484 44.1068 5 43.0625 5V5ZM7.625 12.875V8.9375C7.625 8.5894 7.76328 8.25556 8.00942 8.00942C8.25556 7.76328 8.5894 7.625 8.9375 7.625H43.0625C43.4106 7.625 43.7444 7.76328 43.9906 8.00942C44.2367 8.25556 44.375 8.5894 44.375 8.9375V12.875H7.625Z" fill="#202945"/>
    <path d="M40.4375 20.75H37.8125C37.4644 20.75 37.1306 20.6117 36.8844 20.3656C36.6383 20.1194 36.5 19.7856 36.5 19.4375C36.5 19.0894 36.6383 18.7556 36.8844 18.5094C37.1306 18.2633 37.4644 18.125 37.8125 18.125H40.4375C40.7856 18.125 41.1194 18.2633 41.3656 18.5094C41.6117 18.7556 41.75 19.0894 41.75 19.4375C41.75 19.7856 41.6117 20.1194 41.3656 20.3656C41.1194 20.6117 40.7856 20.75 40.4375 20.75Z" fill="#202945"/>
    <path d="M14.1875 26H11.5625C11.2144 26 10.8806 25.8617 10.6344 25.6156C10.3883 25.3694 10.25 25.0356 10.25 24.6875C10.25 24.3394 10.3883 24.0056 10.6344 23.7594C10.8806 23.5133 11.2144 23.375 11.5625 23.375H14.1875C14.5356 23.375 14.8694 23.5133 15.1156 23.7594C15.3617 24.0056 15.5 24.3394 15.5 24.6875C15.5 25.0356 15.3617 25.3694 15.1156 25.6156C14.8694 25.8617 14.5356 26 14.1875 26Z" fill="#202945"/>
    <path d="M14.1875 20.75H11.5625C11.2144 20.75 10.8806 20.6117 10.6344 20.3656C10.3883 20.1194 10.25 19.7856 10.25 19.4375C10.25 19.0894 10.3883 18.7556 10.6344 18.5094C10.8806 18.2633 11.2144 18.125 11.5625 18.125H14.1875C14.5356 18.125 14.8694 18.2633 15.1156 18.5094C15.3617 18.7556 15.5 19.0894 15.5 19.4375C15.5 19.7856 15.3617 20.1194 15.1156 20.3656C14.8694 20.6117 14.5356 20.75 14.1875 20.75Z" fill="#202945"/>
    <path d="M26 47C23.4432 46.9995 20.9745 46.0662 19.0569 44.375H15.5C15.2763 44.3743 15.0564 44.3165 14.8613 44.2069C14.6663 44.0974 14.5024 43.9398 14.3854 43.7491C14.2683 43.5584 14.202 43.341 14.1926 43.1174C14.1833 42.8939 14.2312 42.6717 14.3319 42.4719L15.8937 39.335C15.6326 38.4126 15.5001 37.4586 15.5 36.5C15.5 34.4233 16.1158 32.3932 17.2696 30.6665C18.4233 28.9398 20.0632 27.594 21.9818 26.7993C23.9004 26.0045 26.0116 25.7966 28.0484 26.2018C30.0852 26.6069 31.9562 27.6069 33.4246 29.0754C34.8931 30.5438 35.8931 32.4148 36.2982 34.4516C36.7034 36.4884 36.4955 38.5996 35.7007 40.5182C34.906 42.4368 33.5602 44.0767 31.8335 45.2304C30.1068 46.3842 28.0767 47 26 47ZM17.6262 41.75H19.5819C19.7508 41.748 19.9184 41.7808 20.0742 41.8463C20.23 41.9118 20.3707 42.0086 20.4875 42.1306C21.786 43.4034 23.4849 44.1876 25.2959 44.3502C27.1068 44.5128 28.9183 44.0437 30.4227 43.0225C31.9271 42.0014 33.0318 40.4911 33.5493 38.748C34.0668 37.005 33.9652 35.1365 33.2617 33.4599C32.5582 31.7832 31.2962 30.4017 29.6899 29.5497C28.0836 28.6978 26.232 28.4279 24.4493 28.7859C22.6667 29.144 21.0628 30.1078 19.91 31.514C18.7573 32.9201 18.1266 34.6818 18.125 36.5C18.1278 37.3615 18.2696 38.2169 18.545 39.0331C18.6015 39.1975 18.6249 39.3715 18.6136 39.545C18.6023 39.7185 18.5567 39.888 18.4794 40.0438L17.6262 41.75Z" fill="#202945"/>
    <path d="M28.625 35.1875H27.3125V33.875C27.3125 33.5269 27.1742 33.1931 26.9281 32.9469C26.6819 32.7008 26.3481 32.5625 26 32.5625C25.6519 32.5625 25.3181 32.7008 25.0719 32.9469C24.8258 33.1931 24.6875 33.5269 24.6875 33.875V35.1875H23.375C23.0269 35.1875 22.6931 35.3258 22.4469 35.5719C22.2008 35.8181 22.0625 36.1519 22.0625 36.5C22.0625 36.8481 22.2008 37.1819 22.4469 37.4281C22.6931 37.6742 23.0269 37.8125 23.375 37.8125H24.6875V39.125C24.6875 39.4731 24.8258 39.8069 25.0719 40.0531C25.3181 40.2992 25.6519 40.4375 26 40.4375C26.3481 40.4375 26.6819 40.2992 26.9281 40.0531C27.1742 39.8069 27.3125 39.4731 27.3125 39.125V37.8125H28.625C28.9731 37.8125 29.3069 37.6742 29.5531 37.4281C29.7992 37.1819 29.9375 36.8481 29.9375 36.5C29.9375 36.1519 29.7992 35.8181 29.5531 35.5719C29.3069 35.3258 28.9731 35.1875 28.625 35.1875Z" fill="#202945"/>
</svg>
