<svg width="52" height="52" viewBox="0 0 52 52" fill="none" xmlns="http://www.w3.org/2000/svg">
    <path opacity="0.981" fill-rule="evenodd" clip-rule="evenodd" d="M24.8281 6C25.6094 6 26.3906 6 27.1719 6C27.1588 7.64083 27.1719 9.28145 27.2109 10.9219C28.2396 11.3255 28.9557 12.0417 29.3594 13.0703C34.1249 13.1094 38.8905 13.1224 43.6562 13.1094C43.6562 13.8906 43.6562 14.6719 43.6562 15.4531C42.6923 15.4401 41.7288 15.4531 40.7656 15.4922C42.503 19.6301 44.2478 23.7577 46 27.875C46 28.3438 46 28.8125 46 29.2812C45.4941 31.6497 44.0878 33.2252 41.7812 34.0078C41.5491 34.0698 41.3148 34.122 41.0781 34.1641C39.6719 34.2162 38.2656 34.2162 36.8594 34.1641C34.759 33.7845 33.2616 32.6255 32.3672 30.6875C31.973 29.7881 31.8427 28.8506 31.9766 27.875C33.6983 23.7417 35.43 19.6141 37.1719 15.4922C34.5677 15.4401 31.9635 15.4401 29.3594 15.4922C28.9557 16.5209 28.2396 17.237 27.2109 17.6406C27.1459 23.2137 27.1588 28.7866 27.25 34.3594C29.6899 35.0284 31.2004 36.5909 31.7812 39.0469C34.0827 39.5644 35.6062 40.9445 36.3516 43.1875C36.5292 44.1152 36.5943 45.0527 36.5469 46C29.5156 46 22.4844 46 15.4531 46C15.1211 42.9784 16.293 40.7779 18.9688 39.3984C19.3755 39.2411 19.7922 39.1239 20.2188 39.0469C20.7996 36.5909 22.3101 35.0284 24.75 34.3594C24.8412 28.7866 24.8541 23.2137 24.7891 17.6406C23.7604 17.237 23.0443 16.5209 22.6406 15.4922C20.0365 15.4401 17.4323 15.4401 14.8281 15.4922C16.57 19.6141 18.3017 23.7417 20.0234 27.875C20.1411 30.5957 18.9822 32.5618 16.5469 33.7734C16.0913 33.9513 15.6225 34.0816 15.1406 34.1641C13.7344 34.2162 12.3281 34.2162 10.9219 34.1641C8.82146 33.7845 7.32407 32.6255 6.42969 30.6875C6.2728 30.2397 6.12957 29.797 6 29.3594C6 28.8646 6 28.3698 6 27.875C7.75219 23.7577 9.49698 19.6301 11.2344 15.4922C10.2712 15.4531 9.30764 15.4401 8.34375 15.4531C8.34375 14.6719 8.34375 13.8906 8.34375 13.1094C13.1094 13.1224 17.8751 13.1094 22.6406 13.0703C23.0443 12.0417 23.7604 11.3255 24.7891 10.9219C24.8281 9.28145 24.8412 7.64083 24.8281 6ZM25.6094 13.1875C26.715 13.0821 27.1968 13.5769 27.0547 14.6719C26.5965 15.4333 25.9845 15.5766 25.2188 15.1016C24.7036 14.3214 24.8338 13.6834 25.6094 13.1875ZM12.9531 17.5625C13.0508 17.5685 13.1159 17.6206 13.1484 17.7188C14.4487 20.8645 15.7638 24.0025 17.0938 27.1328C14.3854 27.1849 11.6771 27.1849 8.96875 27.1328C10.3295 23.9556 11.6576 20.7655 12.9531 17.5625ZM38.8906 17.5625C38.9883 17.5685 39.0534 17.6206 39.0859 17.7188C40.3862 20.8645 41.7012 24.0025 43.0312 27.1328C40.3229 27.1849 37.6146 27.1849 34.9062 27.1328C36.267 23.9556 37.5952 20.7655 38.8906 17.5625ZM8.57812 29.5938C11.5337 29.5028 14.5024 29.4898 17.4844 29.5547C16.9827 30.7076 16.1233 31.4367 14.9062 31.7422C13.6562 31.8984 12.4062 31.8984 11.1562 31.7422C9.95077 31.4347 9.0914 30.7185 8.57812 29.5938ZM34.5156 29.5938C37.4712 29.5028 40.4399 29.4898 43.4219 29.5547C42.9202 30.7076 42.0608 31.4367 40.8438 31.7422C39.5938 31.8984 38.3438 31.8984 37.0938 31.7422C35.8883 31.4347 35.0289 30.7185 34.5156 29.5938ZM25.2969 36.7031C27.1553 36.5122 28.4834 37.2544 29.2812 38.9297C27.0938 38.9818 24.9062 38.9818 22.7188 38.9297C23.2339 37.7757 24.0933 37.0335 25.2969 36.7031ZM21.3125 41.3125C24.6738 41.2773 28.0332 41.3164 31.3906 41.4297C32.6077 41.7352 33.467 42.4643 33.9688 43.6172C28.6562 43.6693 23.3438 43.6693 18.0312 43.6172C18.686 42.2102 19.7798 41.442 21.3125 41.3125Z" fill="#202945"/>
</svg>
